<svg height='100px' width='100px'  fill="#000000" xmlns="http://www.w3.org/2000/svg" xmlns:xlink="http://www.w3.org/1999/xlink" version="1.1" x="0px" y="0px" viewBox="0 0 100 100" style="enable-background:new 0 0 100 100;" xml:space="preserve"><path d="M87.4,34.3l-1.8,0c-9.4,0-16.3-0.5-17.9-1.2c-0.7-0.3-1.2-0.7-1.7-1c-1-0.7-2.1-1.4-3.7-1.6c0,0-0.5-0.1-1.3-0.1  c-1.8,0-5.9,0.4-8.6,4.3c-4-5.5-12.1-11.6-12.4-11.9l-1.9-1.4l0.3,2.3c0.4,3.4,2.9,9.6,4.4,13c-7.9-2.9-18.2-3.4-23.9-3.4  c-2.6,0-4.2,0.1-4.2,0.1l-2.5,0.1l1.9,1.6c8,6.9,20.3,14.2,23.9,16.3c-14.6,17-24.5,25.3-24.6,25.4l1.2,1.6  c0.1-0.1,14.5-10.9,18.2-12.5c0.9-0.4,2.7-0.8,4.8-1.3c7.1-1.6,17.8-3.9,21.6-10.8c1.5-2.7,2.6-5.3,3.5-7.5c2.1-5,3.4-8.3,7.5-8.7  l17.3-1.3L87.4,34.3z M62,38c-1.2,0-2.2-1-2.2-2.2c0-1.2,1-2.2,2.2-2.2c1.2,0,2.2,1,2.2,2.2C64.2,37,63.2,38,62,38z"></path></svg>